name rise42.5664peak47.7979fall81.9185.mot
datacolumns 19
datarows 35
range 3.71498400000000 3.77164800000000
endheader
time	ground_force1_vx	ground_force1_vy	ground_force1_vz	ground_force1_px	ground_force1_py	ground_force1_pz	ground_force2_vx	ground_force2_vy	ground_force2_vz	ground_force2_px	ground_force2_py	ground_force2_pz	ground_torque1_x	ground_torque1_y	ground_torque1_z	ground_torque2_x	ground_torque2_y	ground_torque2_z	
3.71498400000000	-7.32381400000000	40.34728400000000	-9.08256300000000	0.25894700000000	0.00000000000000	0.07176700000000	-42.00060000000000	800.25537799999995	-60.31458000000000	0.06796400000000	0.00000000000000	-0.09981900000000	0.00000000000000	-4.57735100000000	0.00000000000000	0.00000000000000	-15.33408700000000	0.00000000000000	
3.71665300000000	-8.03889000000000	47.41137000000000	-10.20623500000000	0.26353600000000	0.00000000000000	0.07294600000000	-42.47958500000000	797.50155299999994	-59.84530400000000	0.06723300000000	0.00000000000000	-0.09970400000000	0.00000000000000	-5.21132700000000	0.00000000000000	0.00000000000000	-15.29102500000000	0.00000000000000	
3.71832700000000	-8.61664300000000	54.59528300000000	-11.22477500000000	0.26768700000000	0.00000000000000	0.07400700000000	-42.97483600000000	794.61447299999998	-59.34549300000000	0.06650400000000	0.00000000000000	-0.09958300000000	0.00000000000000	-5.80510900000000	0.00000000000000	0.00000000000000	-15.25134200000000	0.00000000000000	
3.71998400000000	-9.03690400000000	61.80855400000000	-12.11415300000000	0.27147500000000	0.00000000000000	0.07497000000000	-43.48581100000000	791.59196799999995	-58.81507900000000	0.06577700000000	0.00000000000000	-0.09945700000000	0.00000000000000	-6.34537700000000	0.00000000000000	0.00000000000000	-15.21502300000000	0.00000000000000	
3.72165400000000	-9.28755500000000	68.98181900000000	-12.85848100000000	0.27496100000000	0.00000000000000	0.07584900000000	-44.01187200000000	788.43183999999997	-58.25404100000000	0.06505300000000	0.00000000000000	-0.09932500000000	0.00000000000000	-6.82275500000000	0.00000000000000	0.00000000000000	-15.18203100000000	0.00000000000000	
3.72332800000000	-9.36442800000000	76.06906900000000	-13.45011500000000	0.27819300000000	0.00000000000000	0.07665700000000	-44.55228300000000	785.13186900000005	-57.66240600000000	0.06433200000000	0.00000000000000	-0.09918800000000	0.00000000000000	-7.23196500000000	0.00000000000000	0.00000000000000	-15.15231100000000	0.00000000000000	
3.72498700000000	-9.27056900000000	83.04759000000000	-13.88906000000000	0.28120700000000	0.00000000000000	0.07740400000000	-45.10621300000000	781.68981799999995	-57.04024900000000	0.06361700000000	0.00000000000000	-0.09904400000000	0.00000000000000	-7.57162500000000	0.00000000000000	0.00000000000000	-15.12578400000000	0.00000000000000	
3.72665500000000	-9.01504000000000	89.91600500000000	-14.18184900000000	0.28403500000000	0.00000000000000	0.07809700000000	-45.67273100000000	778.10343899999998	-56.38769800000000	0.06290700000000	0.00000000000000	-0.09889400000000	0.00000000000000	-7.84376600000000	0.00000000000000	0.00000000000000	-15.10234900000000	0.00000000000000	
3.72833300000000	-8.61144100000000	96.69088400000000	-14.34008500000000	0.28670100000000	0.00000000000000	0.07874400000000	-46.25081300000000	774.37048200000004	-55.70493100000000	0.06220400000000	0.00000000000000	-0.09873800000000	0.00000000000000	-8.05314100000000	0.00000000000000	0.00000000000000	-15.08188300000000	0.00000000000000	
3.72998500000000	-8.07631500000000	103.40247599999999	-14.37881500000000	0.28922600000000	0.00000000000000	0.07935100000000	-46.83934000000000	770.48869900000000	-54.99218200000000	0.06150800000000	0.00000000000000	-0.09857600000000	0.00000000000000	-8.20644400000000	0.00000000000000	0.00000000000000	-15.06424000000000	0.00000000000000	
3.73165500000000	-7.42758900000000	110.09005399999999	-14.31490700000000	0.29162500000000	0.00000000000000	0.07992100000000	-47.43709800000000	766.45585500000004	-54.24974000000000	0.06082000000000	0.00000000000000	-0.09840700000000	0.00000000000000	-8.31148700000000	0.00000000000000	0.00000000000000	-15.04925400000000	0.00000000000000	
3.73333000000000	-6.68318000000000	116.79732400000000	-14.16556200000000	0.29391200000000	0.00000000000000	0.08045900000000	-48.04278600000000	762.26973799999996	-53.47795000000000	0.06014200000000	0.00000000000000	-0.09823200000000	0.00000000000000	-8.37644600000000	0.00000000000000	0.00000000000000	-15.03673300000000	0.00000000000000	
3.73498200000000	-5.85984000000000	123.56825499999999	-13.94705200000000	0.29609800000000	0.00000000000000	0.08097000000000	-48.65501100000000	757.92816400000004	-52.67721500000000	0.05947400000000	0.00000000000000	-0.09805000000000	0.00000000000000	-8.40918800000000	0.00000000000000	0.00000000000000	-15.02646700000000	0.00000000000000	
3.73664900000000	-4.97228800000000	130.44358399999999	-13.67374400000000	0.29819300000000	0.00000000000000	0.08145400000000	-49.27229700000000	753.42899299999999	-51.84799700000000	0.05881700000000	0.00000000000000	-0.09786200000000	0.00000000000000	-8.41675100000000	0.00000000000000	0.00000000000000	-15.01822200000000	0.00000000000000	
3.73832700000000	-4.03265700000000	137.45814899999999	-13.35744700000000	0.30020300000000	0.00000000000000	0.08191600000000	-49.89308400000000	748.77013699999998	-50.99081900000000	0.05817100000000	0.00000000000000	-0.09766700000000	0.00000000000000	-8.40496500000000	0.00000000000000	0.00000000000000	-15.01174500000000	0.00000000000000	
3.73998700000000	-3.05023000000000	144.63910200000001	-13.00705800000000	0.30213500000000	0.00000000000000	0.08235800000000	-50.51573500000000	743.94957499999998	-50.10626300000000	0.05753800000000	0.00000000000000	-0.09746600000000	0.00000000000000	-8.37824100000000	0.00000000000000	0.00000000000000	-15.00675900000000	0.00000000000000	
3.74164900000000	-2.03144500000000	152.00498500000000	-12.62849500000000	0.30399300000000	0.00000000000000	0.08278100000000	-51.13853800000000	738.96536500000002	-49.19497400000000	0.05691800000000	0.00000000000000	-0.09725800000000	0.00000000000000	-8.33949700000000	0.00000000000000	0.00000000000000	-15.00297200000000	0.00000000000000	
3.74333300000000	-0.98011100000000	159.56558400000000	-12.22486500000000	0.30578300000000	0.00000000000000	0.08318700000000	-51.75970900000000	733.81565999999998	-48.25765800000000	0.05631200000000	0.00000000000000	-0.09704300000000	0.00000000000000	-8.29021100000000	0.00000000000000	0.00000000000000	-15.00007000000000	0.00000000000000	
3.74498500000000	0.10221500000000	167.32242400000001	-11.79680700000000	0.30750700000000	0.00000000000000	0.08357800000000	-52.37740100000000	728.49872000000005	-47.29508100000000	0.05572000000000	0.00000000000000	-0.09682100000000	0.00000000000000	-8.23057700000000	0.00000000000000	0.00000000000000	-14.99772200000000	0.00000000000000	
3.74664800000000	1.21575300000000	175.26974899999999	-11.34296400000000	0.30916700000000	0.00000000000000	0.08395500000000	-52.98970500000000	723.01293199999998	-46.30807200000000	0.05514400000000	0.00000000000000	-0.09659300000000	0.00000000000000	-8.15972800000000	0.00000000000000	0.00000000000000	-14.99558100000000	0.00000000000000	
3.74832900000000	2.36196600000000	183.39583500000001	-10.86051300000000	0.31076500000000	0.00000000000000	0.08431900000000	-53.59465600000000	717.35682099999997	-45.29752000000000	0.05458300000000	0.00000000000000	-0.09635800000000	0.00000000000000	-8.07599600000000	0.00000000000000	0.00000000000000	-14.99328400000000	0.00000000000000	
3.74998100000000	3.54304200000000	191.68446599999999	-10.34571300000000	0.31230400000000	0.00000000000000	0.08467200000000	-54.19024200000000	711.52907000000005	-44.26437500000000	0.05403800000000	0.00000000000000	-0.09611600000000	0.00000000000000	-7.97719400000000	0.00000000000000	0.00000000000000	-14.99045300000000	0.00000000000000	
3.75165400000000	4.76140400000000	200.11643799999999	-9.79441700000000	0.31378300000000	0.00000000000000	0.08501500000000	-54.77440300000000	705.52853700000003	-43.20964400000000	0.05350900000000	0.00000000000000	-0.09586800000000	0.00000000000000	-7.86088200000000	0.00000000000000	0.00000000000000	-14.98670000000000	0.00000000000000	
3.75332500000000	6.01929300000000	208.67097799999999	-9.20253100000000	0.31520500000000	0.00000000000000	0.08534700000000	-55.34504600000000	699.35426600000005	-42.13439500000000	0.05299700000000	0.00000000000000	-0.09561300000000	0.00000000000000	-7.72460800000000	0.00000000000000	0.00000000000000	-14.98162400000000	0.00000000000000	
3.75498200000000	7.31843700000000	217.32698400000001	-8.56637900000000	0.31656800000000	0.00000000000000	0.08567100000000	-55.90004400000000	693.00550499999997	-41.03975000000000	0.05250200000000	0.00000000000000	-0.09535100000000	0.00000000000000	-7.56610800000000	0.00000000000000	0.00000000000000	-14.97481400000000	0.00000000000000	
3.75665000000000	8.65981700000000	226.06404599999999	-7.88297900000000	0.31787300000000	0.00000000000000	0.08598700000000	-56.43724500000000	686.48171600000001	-39.92688900000000	0.05202500000000	0.00000000000000	-0.09508300000000	0.00000000000000	-7.38346400000000	0.00000000000000	0.00000000000000	-14.96585300000000	0.00000000000000	
3.75832800000000	10.04352200000000	234.86319700000001	-7.15022600000000	0.31912000000000	0.00000000000000	0.08629500000000	-56.95448100000000	679.78259200000002	-38.79704500000000	0.05156400000000	0.00000000000000	-0.09480900000000	0.00000000000000	-7.17520200000000	0.00000000000000	0.00000000000000	-14.95431800000000	0.00000000000000	
3.75998500000000	11.46869600000000	243.70740599999999	-6.36697400000000	0.32030900000000	0.00000000000000	0.08659600000000	-57.44957300000000	672.90806099999998	-37.65150100000000	0.05112000000000	0.00000000000000	-0.09452800000000	0.00000000000000	-6.94035500000000	0.00000000000000	0.00000000000000	-14.93978000000000	0.00000000000000	
3.76165400000000	12.93355400000000	252.58183299999999	-5.53304500000000	0.32144000000000	0.00000000000000	0.08689100000000	-57.92033800000000	665.85829799999999	-36.49159600000000	0.05069400000000	0.00000000000000	-0.09424000000000	0.00000000000000	-6.67847300000000	0.00000000000000	0.00000000000000	-14.92181200000000	0.00000000000000	
3.76343400000000	14.43546400000000	261.47386100000000	-4.64917400000000	0.32251100000000	0.00000000000000	0.08718000000000	-58.36460100000000	658.63372800000002	-35.31871400000000	0.05028500000000	0.00000000000000	-0.09394700000000	0.00000000000000	-6.38960100000000	0.00000000000000	0.00000000000000	-14.89998400000000	0.00000000000000	
3.76498200000000	15.97106900000000	270.37296600000002	-3.71690000000000	0.32352100000000	0.00000000000000	0.08746400000000	-58.78019700000000	651.23503200000005	-34.13429000000000	0.04989200000000	0.00000000000000	-0.09364700000000	0.00000000000000	-6.07423400000000	0.00000000000000	0.00000000000000	-14.87386900000000	0.00000000000000	
3.76665400000000	17.53642600000000	279.27046000000001	-2.73843200000000	0.32447100000000	0.00000000000000	0.08774200000000	-59.16498400000000	643.66314799999998	-32.93980400000000	0.04951500000000	0.00000000000000	-0.09334200000000	0.00000000000000	-5.73324800000000	0.00000000000000	0.00000000000000	-14.84304500000000	0.00000000000000	
3.76833200000000	19.12717000000000	288.15915400000000	-1.71650000000000	0.32535900000000	0.00000000000000	0.08801500000000	-59.51684900000000	635.91927399999997	-31.73678100000000	0.04915400000000	0.00000000000000	-0.09303000000000	0.00000000000000	-5.36782300000000	0.00000000000000	0.00000000000000	-14.80709600000000	0.00000000000000	
3.76998800000000	20.73866200000000	297.03299299999998	-0.65419800000000	0.32618500000000	0.00000000000000	0.08828400000000	-59.83372200000000	628.00486999999998	-30.52678800000000	0.04880900000000	0.00000000000000	-0.09271300000000	0.00000000000000	-4.97936800000000	0.00000000000000	0.00000000000000	-14.76561700000000	0.00000000000000	
3.77164800000000	22.36613600000000	305.88668400000000	0.44515300000000	0.32694700000000	0.00000000000000	0.08854900000000	-60.11357800000000	619.92165799999998	-29.31143300000000	0.04847800000000	0.00000000000000	-0.09239000000000	0.00000000000000	-4.56944000000000	0.00000000000000	0.00000000000000	-14.71821100000000	0.00000000000000	
